<?xml version="1.0" encoding="UTF-8" standalone="no"?>
<!-- Created with Inkscape (http://www.inkscape.org/) -->

<svg
   xmlns:dc="http://purl.org/dc/elements/1.1/"
   xmlns:cc="http://creativecommons.org/ns#"
   xmlns:rdf="http://www.w3.org/1999/02/22-rdf-syntax-ns#"
   xmlns:svg="http://www.w3.org/2000/svg"
   xmlns="http://www.w3.org/2000/svg"
   xmlns:sodipodi="http://sodipodi.sourceforge.net/DTD/sodipodi-0.dtd"
   xmlns:inkscape="http://www.inkscape.org/namespaces/inkscape"
   version="1.1"
   id="svg4518"
   xml:space="preserve"
   width="486.75613"
   height="103.12666"
   viewBox="0 0 486.75613 103.12666"
   sodipodi:docname="IntelliTect_White.svg"
   inkscape:version="0.92.3 (2405546, 2018-03-11)"><metadata
     id="metadata4524"><rdf:RDF><cc:Work
         rdf:about=""><dc:format>image/svg+xml</dc:format><dc:type
           rdf:resource="http://purl.org/dc/dcmitype/StillImage" /><dc:title></dc:title></cc:Work></rdf:RDF></metadata><defs
     id="defs4522"><clipPath
       clipPathUnits="userSpaceOnUse"
       id="clipPath4534"><path
         d="M 0,113 H 375 V 0 H 0 Z"
         id="path4532"
         inkscape:connector-curvature="0" /></clipPath></defs><sodipodi:namedview
     pagecolor="#ffffff"
     bordercolor="#666666"
     borderopacity="1"
     objecttolerance="10"
     gridtolerance="10"
     guidetolerance="10"
     inkscape:pageopacity="0"
     inkscape:pageshadow="2"
     inkscape:window-width="1758"
     inkscape:window-height="1021"
     id="namedview4520"
     showgrid="false"
     inkscape:zoom="2.88"
     inkscape:cx="183.99305"
     inkscape:cy="50.813868"
     inkscape:window-x="486"
     inkscape:window-y="161"
     inkscape:window-maximized="0"
     inkscape:current-layer="g4526" /><g
     id="g4526"
     inkscape:groupmode="layer"
     inkscape:label="IntelliTect_White"
     transform="matrix(1.3333333,0,0,-1.3333333,-7.4131998,127.64613)"><g
       id="g4528"><g
         id="g4530"
         clip-path="url(#clipPath4534)"><g
           id="g4536"
           transform="translate(30.1709,88.4839)"><path
             d="m 0,0 v -2.417 c -3.088,0 -5.228,-0.793 -6.418,-2.379 -1.19,-1.587 -1.786,-4.413 -1.786,-8.479 v -42.411 c 0,-4.054 0.596,-6.864 1.786,-8.431 1.19,-1.567 3.33,-2.351 6.418,-2.351 v -2.417 h -24.611 v 2.417 c 2.71,0 4.559,0.774 5.548,2.322 0.989,1.549 1.484,4.369 1.484,8.46 v 42.411 c 0,4.179 -0.486,7.034 -1.456,8.563 -0.971,1.53 -2.829,2.295 -5.576,2.295 V 0 H 0"
             style="fill:#ffffff;fill-opacity:1;fill-rule:nonzero;stroke:none"
             id="path4538"
             inkscape:connector-curvature="0" /></g><g
           id="g4540"
           transform="translate(43.063,63.105)"><path
             d="M 0,0 V -8.969 C 4.895,-2.99 9.943,0 15.144,0 c 4.041,0 7.41,-1.378 10.108,-4.135 2.698,-2.757 4.047,-6.395 4.047,-10.915 v -18.92 c 0,-2.896 0.476,-4.806 1.428,-5.731 0.953,-0.925 2.82,-1.388 5.604,-1.388 v -2.417 H 14.063 v 2.417 c 2.698,0 4.545,0.352 5.54,1.057 0.995,0.705 1.492,2.065 1.492,4.079 v 21.64 c 0,2.895 -0.87,5.199 -2.609,6.911 -1.74,1.712 -3.965,2.568 -6.675,2.568 -3.894,0 -7.832,-2.795 -11.811,-8.384 v -20.016 c 0,-3.386 0.451,-5.542 1.355,-6.467 0.903,-0.925 2.795,-1.388 5.676,-1.388 v -2.417 h -22.267 v 2.417 c 3.211,0 5.185,0.507 5.924,1.52 0.738,1.013 1.108,3.163 1.108,6.448 v 23.415 c 0,2.48 -0.446,4.114 -1.337,4.9 -0.891,0.787 -2.79,1.181 -5.695,1.181 v 2.417 L -2.051,0 H 0"
             style="fill:#ffffff;fill-opacity:1;fill-rule:nonzero;stroke:none"
             id="path4542"
             inkscape:connector-curvature="0" /></g><g
           id="g4544"
           transform="translate(89.9409,76.3989)"><path
             d="m 0,0 h 2.344 v -14.502 h 14.064 v -2.417 H 2.344 v -28.268 c 0,-2.946 0.644,-5.215 1.932,-6.807 1.288,-1.593 3.122,-2.389 5.503,-2.389 2.808,0 5.365,1.208 7.673,3.625 l 1.3,-1.321 c -3.638,-3.953 -7.838,-5.93 -12.599,-5.93 -3.565,0 -6.458,1.159 -8.68,3.475 -2.222,2.316 -3.333,5.306 -3.333,8.969 v 28.646 h -8.203 v 2.001 C -8.228,-12.073 -3.54,-7.1 0,0"
             style="fill:#ffffff;fill-opacity:1;fill-rule:nonzero;stroke:none"
             id="path4546"
             inkscape:connector-curvature="0" /></g><g
           id="g4548"
           transform="translate(147.3682,30.4746)"><path
             d="m 0,0 v -3.059 c -2.539,-3.247 -5.128,-5.564 -7.765,-6.949 -2.636,-1.384 -5.804,-2.077 -9.504,-2.077 -6.543,0 -11.942,2.068 -16.197,6.203 -4.254,4.136 -6.381,9.382 -6.381,15.739 0,6.409 2.005,11.805 6.015,16.192 4.011,4.389 8.927,6.581 14.751,6.581 4.785,0 8.966,-1.695 12.543,-5.088 3.577,-3.393 5.366,-7.438 5.366,-12.133 v -0.906 h -30.472 v -0.566 c 0,-4.507 0.705,-8.425 2.116,-11.755 1.41,-3.329 3.47,-5.936 6.18,-7.818 2.71,-1.882 5.536,-2.823 8.478,-2.823 2.747,0 5.1,0.552 7.06,1.652 C -5.851,-5.705 -3.248,-3.436 0,0 m -31.644,16.92 h 22.268 v 0.83 c 0,3.815 -1.044,6.846 -3.131,9.092 -2.088,2.248 -4.688,3.371 -7.801,3.371 -3.309,0 -5.97,-1.18 -7.984,-3.54 -2.015,-2.36 -3.132,-5.611 -3.352,-9.753"
             style="fill:#ffffff;fill-opacity:1;fill-rule:nonzero;stroke:none"
             id="path4550"
             inkscape:connector-curvature="0" /></g><g
           id="g4552"
           transform="translate(169.6348,22.0156)"><path
             d="M 0,0 H 1.172 V -2.417 H -23.44 V 0 h 2.29 c 2.295,0 3.854,0.57 4.678,1.709 0.824,1.14 1.236,3.258 1.236,6.354 v 56.214 c 0,2.191 -0.415,3.708 -1.245,4.552 -0.83,0.843 -2.264,1.264 -4.303,1.264 h -2.656 v 2.417 l 14.449,1.209 h 1.959 V 6.006 c 0,-2.318 0.498,-3.898 1.493,-4.74 C -4.544,0.423 -2.698,0 0,0"
             style="fill:#ffffff;fill-opacity:1;fill-rule:nonzero;stroke:none"
             id="path4554"
             inkscape:connector-curvature="0" /></g><g
           id="g4556"
           transform="translate(191.9023,22.0156)"><path
             d="M 0,0 H 1.172 V -2.417 H -23.439 V 0 h 2.289 c 2.295,0 3.854,0.57 4.678,1.709 0.825,1.14 1.237,3.258 1.237,6.354 v 56.214 c 0,2.191 -0.416,3.708 -1.246,4.552 -0.831,0.843 -2.264,1.264 -4.303,1.264 h -2.655 v 2.417 l 14.448,1.209 h 1.959 V 6.006 c 0,-2.318 0.498,-3.898 1.492,-4.74 C -4.544,0.423 -2.698,0 0,0"
             style="fill:#ffffff;fill-opacity:1;fill-rule:nonzero;stroke:none"
             id="path4558"
             inkscape:connector-curvature="0" /></g><g
           id="g4560"
           transform="translate(205.0498,63.105)"><path
             d="m 0,0 h 2.088 v -35.311 c 0,-2.304 0.589,-3.843 1.767,-4.617 1.178,-0.774 3.323,-1.161 6.436,-1.161 v -2.417 h -24.61 v 2.417 c 3.466,0 5.7,0.371 6.701,1.114 1.001,0.743 1.502,2.285 1.502,4.626 v 25.53 c 0,2.518 -0.458,4.179 -1.374,4.985 -0.915,0.806 -3.192,1.209 -6.829,1.209 v 2.417 z m -1.94,22.962 c 1.123,0 2.074,-0.52 2.856,-1.558 0.781,-1.039 1.172,-2.313 1.172,-3.824 0,-1.498 -0.397,-2.788 -1.191,-3.871 -0.793,-1.083 -1.739,-1.624 -2.837,-1.624 -1.136,0 -2.116,0.541 -2.94,1.624 -0.824,1.083 -1.236,2.373 -1.236,3.871 0,1.511 0.406,2.785 1.218,3.824 0.811,1.038 1.797,1.558 2.958,1.558"
             style="fill:#ffffff;fill-opacity:1;fill-rule:nonzero;stroke:none"
             id="path4562"
             inkscape:connector-curvature="0" /></g><g
           id="g4564"
           transform="translate(257.9531,86.0669)"><path
             d="m 0,0 h -9.797 v -53.382 c 0,-4.192 0.559,-7.018 1.676,-8.479 1.117,-1.46 3.293,-2.19 6.528,-2.19 v -2.417 h -25.783 v 2.417 c 3.186,0 5.35,0.841 6.491,2.521 1.142,1.68 1.713,4.516 1.713,8.506 V 0 h -9.724 c -4.651,0 -8.033,-0.749 -10.145,-2.247 -2.112,-1.498 -3.302,-3.972 -3.571,-7.421 h -2.344 V 4.834 h 2.344 c 1.807,-1.612 5.182,-2.417 10.127,-2.417 H 2.93 c 5.103,0 8.674,0.805 10.713,2.417 h 2.344 V -9.668 H 13.643 C 12.837,-5.942 11.396,-3.399 9.321,-2.04 7.246,-0.68 4.139,0 0,0"
             style="fill:#ffffff;fill-opacity:1;fill-rule:nonzero;stroke:none"
             id="path4566"
             inkscape:connector-curvature="0" /></g><g
           id="g4568"
           transform="translate(300.3086,30.4746)"><path
             d="m 0,0 v -3.059 c -2.539,-3.247 -5.127,-5.564 -7.764,-6.949 -2.636,-1.384 -5.804,-2.077 -9.504,-2.077 -6.544,0 -11.943,2.068 -16.197,6.203 -4.255,4.136 -6.382,9.382 -6.382,15.739 0,6.409 2.005,11.805 6.015,16.192 4.012,4.389 8.929,6.581 14.751,6.581 4.785,0 8.968,-1.695 12.545,-5.088 3.576,-3.393 5.364,-7.438 5.364,-12.133 v -0.906 h -30.471 v -0.566 c 0,-4.507 0.705,-8.425 2.116,-11.755 1.41,-3.329 3.469,-5.936 6.179,-7.818 2.71,-1.882 5.536,-2.823 8.48,-2.823 2.745,0 5.098,0.552 7.058,1.652 C -5.851,-5.705 -3.246,-3.436 0,0 m -31.643,16.92 h 22.267 v 0.83 c 0,3.815 -1.044,6.846 -3.131,9.092 -2.088,2.248 -4.687,3.371 -7.801,3.371 -3.308,0 -5.969,-1.18 -7.984,-3.54 -2.015,-2.36 -3.132,-5.611 -3.351,-9.753"
             style="fill:#ffffff;fill-opacity:1;fill-rule:nonzero;stroke:none"
             id="path4570"
             inkscape:connector-curvature="0" /></g><g
           id="g4572"
           transform="translate(340.1563,63.105)"><path
             d="m 0,0 v -14.502 h -2.344 c -0.855,3.726 -2.478,6.672 -4.871,8.837 -2.393,2.165 -5.25,3.248 -8.57,3.248 -3.992,0 -7.243,-1.627 -9.751,-4.881 -2.509,-3.254 -3.764,-7.475 -3.764,-12.66 0,-5.729 1.505,-10.683 4.514,-14.862 3.01,-4.179 6.596,-6.269 10.759,-6.269 2.758,0 5.496,0.746 8.213,2.237 2.715,1.492 5.044,3.566 6.986,6.222 v -3.002 c -4.444,-6.055 -10.476,-9.083 -18.093,-9.083 -6.067,0 -11.015,1.98 -14.843,5.939 -3.826,3.959 -5.739,9.105 -5.739,15.437 0,6.483 2.044,11.994 6.134,16.532 4.09,4.538 9.021,6.807 14.796,6.807 2.576,0 5.451,-0.529 8.625,-1.586 1.38,-0.453 2.332,-0.68 2.857,-0.68 1.159,0 2.074,0.755 2.747,2.266 L 0,0"
             style="fill:#ffffff;fill-opacity:1;fill-rule:nonzero;stroke:none"
             id="path4574"
             inkscape:connector-curvature="0" /></g><g
           id="g4576"
           transform="translate(351.875,76.3989)"><path
             d="m 0,0 h 2.344 v -14.502 h 14.064 v -2.417 H 2.344 v -28.268 c 0,-2.946 0.644,-5.215 1.932,-6.807 1.288,-1.593 3.122,-2.389 5.503,-2.389 2.808,0 5.365,1.208 7.673,3.625 l 1.3,-1.321 c -3.638,-3.953 -7.838,-5.93 -12.599,-5.93 -3.565,0 -6.458,1.159 -8.68,3.475 -2.222,2.316 -3.333,5.306 -3.333,8.969 v 28.646 h -8.203 v 2.001 C -8.228,-12.073 -3.54,-7.1 0,0"
             style="fill:#ffffff;fill-opacity:1;fill-rule:nonzero;stroke:none"
             id="path4578"
             inkscape:connector-curvature="0" /></g></g></g></g></svg>